<svg version="1.1"
     baseProfile="full"
     xmlns="http://www.w3.org/2000/svg"
     xmlns:xlink="http://www.w3.org/1999/xlink"
     width="730" height="360">
  <title>Kubernetes's view of AWS Production</title>
  <defs>
    <style type="text/css"><![CDATA[
      text {
        stroke: black;
        font-family: sans-serif;
        font-size: 14px;
        text-anchor: middle;
      }
      .deployment rect {
        fill: white;
        stroke-width: 3;
        stroke: black;
      }
      .replicaset rect {
        stroke-width: 2;
      }
      .pods rect {
        stroke-width: 2;
      }
      .rs-green .pods rect {
        fill: lightgreen;
      }
      .rs-blue .pods rect {
        fill: lightblue;
      }
      .pods rect.starting {
        fill: url(#hatch);
      }
      .replicaset text {
        font-size: 12px;
      }
      .rs-green rect {
        stroke: green;
      }
      .rs-blue rect {
        stroke: blue;
      }
    ]]></style>
    <pattern id="hatch" patternUnits="userSpaceOnUse" width="4" height="4" patternTransform="rotate(45 0 0)">
      <line x1="0" y1="0" x2="0" y2="10" style="stroke:blue; stroke-width:1" />
    </pattern>
  </defs>

  <g class="global" transform="translate(5,5)">
    <g id="step1" class="step" transform="translate(0,0)">
      <text x="50" y="15">Step 1</text>
      <text x="50" y="34">Add new config</text>
      <g class="deployment" transform="translate(5, 50)">
        <rect x="0" y="0" rx="5" ry="5" width="87" height="300" />
        <text x="44" y="15">Deployment</text>
        <text x="44" y="32">(4 pods)</text>
        <g class="replicaset rs-green" transform="translate(6,60)">
          <rect x="0" y="0" rx="3" ry="3" width="75" height="156" />
          <text x="38" y="12">ReplicaSet</text>
          <text x="38" y="27">web-61720</text>
          <g class="pods" transform="translate(5,35)">
            <rect x="0" y="0" width="65" height="26" />
            <rect x="0" y="30" width="65" height="26" />
            <rect x="0" y="60" width="65" height="26" />
            <rect x="0" y="90" width="65" height="26" />
          </g>
        </g>
        <g class="replicaset rs-blue" transform="translate(6,254)">
          <rect x="0" y="0" rx="3" ry="3" width="75" height="40" />
          <text x="38" y="12">ReplicaSet</text>
          <text x="38" y="27">web-10571</text>
        </g>
      </g>
    </g>
    <g id="step2" class="step" transform="translate(125,0)">
      <text x="50" y="15">Step 2</text>
      <text x="50" y="34">Start new pod</text>
      <g class="deployment" transform="translate(5, 50)">
        <rect x="0" y="0" rx="5" ry="5" width="87" height="300" />
        <text x="44" y="15">Deployment</text>
        <text x="44" y="32">(4 running,</text>
        <text x="44" y="49">1 starting)</text>
        <g class="replicaset rs-green" transform="translate(6,60)">
          <rect x="0" y="0" rx="3" ry="3" width="75" height="156" />
          <text x="38" y="12">ReplicaSet</text>
          <text x="38" y="27">web-61720</text>
          <g class="pods" transform="translate(5,35)">
            <rect x="0" y="0" width="65" height="26" />
            <rect x="0" y="30" width="65" height="26" />
            <rect x="0" y="60" width="65" height="26" />
            <rect x="0" y="90" width="65" height="26" />
          </g>
        </g>
        <g class="replicaset rs-blue" transform="translate(6,228)">
          <rect x="0" y="0" rx="3" ry="3" width="75" height="66" />
          <text x="38" y="12">ReplicaSet</text>
          <text x="38" y="27">web-10571</text>
          <g class="pods" transform="translate(5,35)">
            <rect class="starting" x="0" y="0" width="65" height="26" fill="url(#hatch)" />
          </g>
        </g>
      </g>
    </g>
    <g id="step3" class="step" transform="translate(250,0)">
      <text x="175" y="15">Step 3</text>
      <text x="175" y="34">Scale down the old ReplicaSet, scale up the new ReplicaSet</text>
      <g class="deployment" transform="translate(5, 50)">
        <rect x="0" y="0" rx="5" ry="5" width="87" height="300" />
        <text x="44" y="15">Deployment</text>
        <text x="44" y="32">(4 running,</text>
        <text x="44" y="49">1 starting)</text>
        <g class="replicaset rs-green" transform="translate(6,60)">
          <rect x="0" y="0" rx="3" ry="3" width="75" height="126" />
          <text x="38" y="12">ReplicaSet</text>
          <text x="38" y="27">web-61720</text>
          <g class="pods" transform="translate(5,35)">
            <rect x="0" y="0" width="65" height="26" />
            <rect x="0" y="30" width="65" height="26" />
            <rect x="0" y="60" width="65" height="26" />
          </g>
        </g>
        <g class="replicaset rs-blue" transform="translate(6,198)">
          <rect x="0" y="0" rx="3" ry="3" width="75" height="96" />
          <text x="38" y="12">ReplicaSet</text>
          <text x="38" y="27">web-10571</text>
          <g class="pods" transform="translate(5,35)">
            <rect x="0" y="0" width="65" height="26" />
            <rect class="starting" x="0" y="30" width="65" height="26" />
          </g>
        </g>
      </g>
      <g class="deployment" transform="translate(130, 50)">
        <rect x="0" y="0" rx="5" ry="5" width="87" height="300" />
        <text x="44" y="15">Deployment</text>
        <text x="44" y="32">(4 running,</text>
        <text x="44" y="49">1 starting)</text>
        <g class="replicaset rs-green" transform="translate(6,60)">
          <rect x="0" y="0" rx="3" ry="3" width="75" height="96" />
          <text x="38" y="12">ReplicaSet</text>
          <text x="38" y="27">web-61720</text>
          <g class="pods" transform="translate(5,35)">
            <rect x="0" y="0" width="65" height="26" />
            <rect x="0" y="30" width="65" height="26" />
          </g>
        </g>
        <g class="replicaset rs-blue" transform="translate(6,168)">
          <rect x="0" y="0" rx="3" ry="3" width="75" height="126" />
          <text x="38" y="12">ReplicaSet</text>
          <text x="38" y="27">web-10571</text>
          <g class="pods" transform="translate(5,35)">
            <rect x="0" y="0" width="65" height="26" />
            <rect x="0" y="30" width="65" height="26" />
            <rect class="starting" x="0" y="60" width="65" height="26" />
          </g>
        </g>
      </g>
      <g class="deployment" transform="translate(255, 50)">
        <rect x="0" y="0" rx="5" ry="5" width="87" height="300" />
        <text x="44" y="15">Deployment</text>
        <text x="44" y="32">(4 running,</text>
        <text x="44" y="49">1 starting)</text>
        <g class="replicaset rs-green" transform="translate(6,60)">
          <rect x="0" y="0" rx="3" ry="3" width="75" height="66" />
          <text x="38" y="12">ReplicaSet</text>
          <text x="38" y="27">web-61720</text>
          <g class="pods" transform="translate(5,35)">
            <rect x="0" y="0" width="65" height="26" />
          </g>
        </g>
        <g class="replicaset rs-blue" transform="translate(6,138)">
          <rect x="0" y="0" rx="3" ry="3" width="75" height="156" />
          <text x="38" y="12">ReplicaSet</text>
          <text x="38" y="27">web-10571</text>
          <g class="pods" transform="translate(5,35)">
            <rect x="0" y="0" width="65" height="26" />
            <rect x="0" y="30" width="65" height="26" />
            <rect x="0" y="60" width="65" height="26" />
            <rect class="starting" x="0" y="90" width="65" height="26" />
          </g>
        </g>
      </g>
    </g>
    <g id="step4" class="step" transform="translate(625,0)">
      <text x="50" y="15">Step 4</text>
      <text x="50" y="34">Rolled out</text>
      <g class="deployment" transform="translate(5, 50)">
        <rect x="0" y="0" rx="5" ry="5" width="87" height="300" />
        <text x="44" y="15">Deployment</text>
        <text x="44" y="32">(4 pods)</text>
        <g class="replicaset rs-blue" transform="translate(6,60)">
          <rect x="0" y="0" rx="3" ry="3" width="75" height="156" />
          <text x="38" y="12">ReplicaSet</text>
          <text x="38" y="27">web-10571</text>
          <g class="pods" transform="translate(5,35)">
            <rect x="0" y="0" width="65" height="26" />
            <rect x="0" y="30" width="65" height="26" />
            <rect x="0" y="60" width="65" height="26" />
            <rect x="0" y="90" width="65" height="26" />
          </g>
        </g>
        <g class="replicaset rs-green" transform="translate(6,254)">
          <rect x="0" y="0" rx="3" ry="3" width="75" height="40" />
          <text x="38" y="12">ReplicaSet</text>
          <text x="38" y="27">web-61720</text>
        </g>
      </g>
    </g>
  </g>
</svg>
